<?xml version="1.0" encoding="UTF-8"?>
<svg width="14px" height="14px" viewBox="0 0 14 14" version="1.1" xmlns="http://www.w3.org/2000/svg" xmlns:xlink="http://www.w3.org/1999/xlink">
    <!-- Generator: Sketch 61.1 (89650) - https://sketch.com -->
    <title></title>
    <desc>Created with Sketch.</desc>
    <g id="Final" stroke="none" stroke-width="1" fill="none" fill-rule="evenodd">
        <g id="TCP-Top-Nav" transform="translate(-929.000000, -443.000000)" fill="#727272" fill-rule="nonzero">
            <g id="Group-4-Copy-3" transform="translate(314.000000, 361.000000)">
                <g id="Group-6" transform="translate(615.250000, 78.500000)">
                    <path d="M6.89100911,16.6312566 L8.09197785,14.2267652 L10.6411756,15.0773491 C10.9865022,15.1916067 11.3140256,14.8640585 11.1972389,14.5212858 L10.346655,11.972088 L12.7511464,10.7710945 C13.0812238,10.6060558 13.0812238,10.1439674 12.7562295,9.98145787 L10.3517381,8.78048913 L11.202322,6.23126654 C11.3165795,5.88596478 10.9890313,5.55841658 10.6462587,5.67522806 L8.09706093,6.52581197 L6.89353825,4.11876662 C6.73102872,3.79377235 6.26894028,3.79377235 6.10643075,4.11876662 L4.90546201,6.52325803 L2.35371028,5.67267413 C2.00838373,5.55841658 1.68086033,5.88596478 1.797647,6.22873741 L2.64823091,8.7779352 L0.243739501,9.98145787 C-0.0812547654,10.1439674 -0.0812547654,10.6060558 0.243739501,10.7685654 L2.64823091,11.9695341 L1.797647,14.5212858 C1.68338946,14.8666124 2.01093766,15.1941358 2.35371028,15.0773491 L4.90290808,14.2267652 L6.10390162,16.6312566 C6.26638635,16.9562509 6.72849958,16.9562509 6.89100911,16.6312566 Z M4.20213842,12.6728577 C2.93513933,11.4058586 2.93513933,9.34416462 4.20213842,8.07716554 C5.4691375,6.81016645 7.5308315,6.81016645 8.79783059,8.07716554 C10.0648297,9.34416462 10.0648297,11.4058586 8.79783059,12.6728577 C7.5308315,13.9398568 5.4691375,13.9398568 4.20213842,12.6728577 Z M6.4999845,12.8125058 C7.84315528,12.8125058 8.93747869,11.7181824 8.93747869,10.3750116 C8.93747869,9.03184084 7.84315528,7.93751743 6.4999845,7.93751743 C5.15681372,7.93751743 4.06249031,9.03184084 4.06249031,10.3750116 C4.06249031,11.7181824 5.15681372,12.8125058 6.4999845,12.8125058 Z" id=""></path>
                </g>
            </g>
        </g>
    </g>
</svg>