<?xml version="1.0" encoding="UTF-8"?>
<svg width="15px" height="13px" viewBox="0 0 15 13" version="1.1" xmlns="http://www.w3.org/2000/svg" xmlns:xlink="http://www.w3.org/1999/xlink">
    <!-- Generator: Sketch 61.1 (89650) - https://sketch.com -->
    <title>Path</title>
    <desc>Created with Sketch.</desc>
    <g id="Final" stroke="none" stroke-width="1" fill="none" fill-rule="evenodd">
        <g id="TCP-Top-Nav" transform="translate(-839.000000, -443.000000)" fill="#727272" fill-rule="nonzero">
            <g id="Group-4-Copy-3" transform="translate(314.000000, 361.000000)">
                <g id="Group-5" transform="translate(524.500000, 78.500000)">
                    <g id="palm-tree-svg" transform="translate(0.500000, 3.750000)">
                        <path d="M10.2757129,1.57421875 C9.30584656,1.57421875 8.42944946,1.8629895 7.74220459,2.32443237 C7.28420532,0.988068237 5.76483826,0 3.9414502,0 C1.95842651,0 0.316565552,1.16197021 0.0305004883,2.67764771 C-0.0150042725,2.92189758 0.190628052,3.1484375 0.467346191,3.1484375 L1.79559326,3.1484375 L2.38592529,1.96777344 L3.20894653,3.61381592 C3.12211853,3.68932922 3.02987915,3.7537738 2.94674072,3.83691223 C1.54470215,5.23919678 1.20526123,7.22172852 2.07526306,8.49536987 C2.21546692,8.70051025 2.52096375,8.71526855 2.71651123,8.51996704 L6.31089539,4.92533691 C6.57457703,7.50189026 6.02999573,10.213728 5.67505859,11.6194562 C5.55010498,12.1145972 5.92791748,12.59375 6.43953857,12.59375 L7.79558044,12.59375 C8.18298584,12.59375 8.52537842,12.3140802 8.57555664,11.9296265 C8.93934875,9.13858582 8.29096741,6.11633179 7.92594543,4.72265625 L11.2409058,4.72265625 L11.8312378,3.54199219 L12.4215698,4.72265625 L13.7498169,4.72265625 C14.026535,4.72265625 14.2321674,4.49611633 14.1861707,4.25186646 C13.9005975,2.73618896 12.2587366,1.57421875 10.2757129,1.57421875 Z" id="Path"></path>
                    </g>
                </g>
            </g>
        </g>
    </g>
</svg>