<?xml version="1.0" encoding="UTF-8"?>
<svg width="48px" height="62px" viewBox="0 0 48 62" version="1.1" xmlns="http://www.w3.org/2000/svg" xmlns:xlink="http://www.w3.org/1999/xlink">
    <!-- Generator: Sketch 52.6 (67491) - http://www.bohemiancoding.com/sketch -->
    <title>round-whatshot-24px</title>
    <desc>Created with Sketch.</desc>
    <g id="Berkeley" stroke="none" stroke-width="1" fill="none" fill-rule="evenodd">
        <g id="TEFL-Parent---v4" transform="translate(-1025.000000, -1241.000000)">
            <g id="round-whatshot-24px" transform="translate(1013.000000, 1237.000000)">
                <polygon id="Path" points="0 0 72 0 72 72 0 72"></polygon>
                <path d="M51.27,13.68 C49.17,10.59 46.77,7.71 44.07,5.13 C43.02,4.11 41.25,5.07 41.55,6.51 C42.12,9.33 42.72,13.05 42.72,16.38 C42.72,22.56 38.67,27.57 32.49,27.57 C27.87,27.57 24.09,24.78 22.44,20.79 C22.14,20.19 22.02,19.83 21.84,19.17 C21.51,17.91 19.86,17.52 19.14,18.63 C18.6,19.44 18.09,20.25 17.61,21.12 C14.04,27.24 12,34.38 12,42 C12,55.26 22.74,66 36,66 C49.26,66 60,55.26 60,42 C60,31.53 56.76,21.81 51.27,13.68 Z M35.13,57 C29.79,57 25.47,52.8 25.47,47.58 C25.47,42.72 28.62,39.3 33.9,38.22 C38.31,37.32 42.84,35.43 45.99,32.46 C46.83,31.68 48.21,32.04 48.45,33.15 C49.14,36.21 49.5,39.39 49.5,42.6 C49.53,50.55 43.08,57 35.13,57 Z" id="Shape" fill="#FF6666" fill-rule="nonzero"></path>
            </g>
        </g>
    </g>
</svg>