<?xml version="1.0" encoding="UTF-8"?>
<svg width="54px" height="60px" viewBox="0 0 54 60" version="1.1" xmlns="http://www.w3.org/2000/svg" xmlns:xlink="http://www.w3.org/1999/xlink">
    <!-- Generator: Sketch 52.6 (67491) - http://www.bohemiancoding.com/sketch -->
    <title>round-event_available-24px</title>
    <desc>Created with Sketch.</desc>
    <g id="Berkeley" stroke="none" stroke-width="1" fill="none" fill-rule="evenodd">
        <g id="TEFL-Parent---v4" transform="translate(-617.000000, -1240.000000)">
            <g id="round-event_available-24px" transform="translate(608.000000, 1237.000000)">
                <polygon id="Path" points="0 0 72 0 72 72 0 72"></polygon>
                <path d="M48,31.59 C47.13,30.72 45.69,30.72 44.82,31.59 L31.77,44.64 L27,39.87 C26.13,39 24.69,39 23.82,39.87 C22.95,40.74 22.95,42.18 23.82,43.05 L29.64,48.87 C30.81,50.04 32.7,50.04 33.87,48.87 L47.97,34.77 C48.87,33.9 48.87,32.46 48,31.59 Z M57,9 L54,9 L54,6 C54,4.35 52.65,3 51,3 C49.35,3 48,4.35 48,6 L48,9 L24,9 L24,6 C24,4.35 22.65,3 21,3 C19.35,3 18,4.35 18,6 L18,9 L15,9 C11.67,9 9.03,11.7 9.03,15 L9,57 C9,60.3 11.67,63 15,63 L57,63 C60.3,63 63,60.3 63,57 L63,15 C63,11.7 60.3,9 57,9 Z M54,57 L18,57 C16.35,57 15,55.65 15,54 L15,24 L57,24 L57,54 C57,55.65 55.65,57 54,57 Z" id="Shape" fill="#28C6A8" fill-rule="nonzero"></path>
            </g>
        </g>
    </g>
</svg>