<?xml version="1.0" encoding="UTF-8"?>
<svg width="31px" height="56px" viewBox="0 0 31 56" version="1.1" xmlns="http://www.w3.org/2000/svg" xmlns:xlink="http://www.w3.org/1999/xlink">
    <!-- Generator: Sketch 52.6 (67491) - http://www.bohemiancoding.com/sketch -->
    <title>round-attach_money-24px</title>
    <desc>Created with Sketch.</desc>
    <g id="Berkeley" stroke="none" stroke-width="1" fill="none" fill-rule="evenodd">
        <g id="TEFL-Parent---v4" transform="translate(-237.000000, -1245.000000)">
            <g id="round-attach_money-24px" transform="translate(218.000000, 1237.000000)">
                <polygon id="Path" points="0 0 72 0 72 72 0 72"></polygon>
                <path d="M35.4454054,32.6702703 C28.5985946,30.8843243 26.3967568,29.0378378 26.3967568,26.1621622 C26.3967568,22.8627027 29.4431351,20.5621622 34.5405405,20.5621622 C38.8235676,20.5621622 40.9650811,22.1967568 41.7492973,24.8 C42.1112432,26.0108108 43.1065946,26.9189189 44.3734054,26.9189189 L45.2782703,26.9189189 C47.268973,26.9189189 48.6865946,24.9513514 47.9928649,23.0745946 C46.7260541,19.5027027 43.7701622,16.5362162 39.0648649,15.3859459 L39.0648649,13.2972973 C39.0648649,10.7848649 37.044,8.75675676 34.5405405,8.75675676 C32.0370811,8.75675676 30.0162162,10.7848649 30.0162162,13.2972973 L30.0162162,15.2951351 C24.1647568,16.5664865 19.4594595,20.3805405 19.4594595,26.2227027 C19.4594595,33.2151351 25.2204324,36.6962162 33.6356757,38.7243243 C41.1762162,40.5405405 42.6843243,43.2043243 42.6843243,46.0194595 C42.6843243,48.1081081 41.2063784,51.4378378 34.5405405,51.4378378 C29.5637838,51.4378378 27,49.6518919 26.0046486,47.1091892 C25.5522162,45.9286486 24.5267027,45.0810811 23.2900541,45.0810811 L22.4455135,45.0810811 C20.4246486,45.0810811 19.007027,47.1394595 19.7610811,49.0162162 C21.4803243,53.2237838 25.4918919,55.7059459 30.0162162,56.6745946 L30.0162162,58.7027027 C30.0162162,61.2151351 32.0370811,63.2432432 34.5405405,63.2432432 C37.044,63.2432432 39.0648649,61.2151351 39.0648649,58.7027027 L39.0648649,56.7351351 C44.9464865,55.6151351 49.6216216,52.1945946 49.6216216,45.9891892 C49.6216216,37.3924324 42.2922162,34.4562162 35.4454054,32.6702703 Z" id="Path" fill="#FFBF00"></path>
            </g>
        </g>
    </g>
</svg>