<?xml version="1.0" encoding="UTF-8"?>
<svg width="24px" height="24px" viewBox="0 0 24 24" version="1.1" xmlns="http://www.w3.org/2000/svg" xmlns:xlink="http://www.w3.org/1999/xlink">
    <!-- Generator: Sketch 53.1 (72631) - https://sketchapp.com -->
    <title>Icon / Hire Teachers</title>
    <desc>Created with Sketch.</desc>
    <g id="Symbols" stroke="none" stroke-width="1" fill="none" fill-rule="evenodd">
        <g id="Bottom-Nav-/-Tab-Bar" transform="translate(-192.000000, -8.000000)">
            <g id="Bottom-Nav-/-Tab-Copy-2" transform="translate(171.000000, 8.000000)">
                <g id="Icon-/-License" transform="translate(21.000000, 0.000000)">
                    <g id="ic_brightness_low_black_24px">
                        <polygon id="Shape5" points="0 0 24 0 24 24 0 24"></polygon>
                        <polygon id="Shape6" fill-opacity="0.54" fill="#000000" fill-rule="nonzero" points="20 15.31 23.31 12 20 8.69 20 4 15.31 4 12 0.69 8.69 4 4 4 4 8.69 0.69 12 4 15.31 4 20 8.69 20 12 23.31 15.31 20 20 20"></polygon>
                        <polygon id="T" fill="#FFFFFF" points="15.865 9.759 13.122 9.759 13.122 17 10.808 17 10.808 9.759 8.091 9.759 8.091 7.887 15.865 7.887"></polygon>
                    </g>
                </g>
            </g>
        </g>
    </g>
</svg>
